PathFileType	4	(X/Y/Z)	C:/Users/opensim2020/Desktop/walking_exp_matlab/subject02_walking07_straight_01.trc																																																																																																																																																				
DataRate	CameraRate	NumFrames	NumMarkers	Units	OrigDataRate	OrigDataStartFrame	OrigNumFrames																																																																																																																																																
100	100	4	50	mm	100	802	176																																																																																																																																																
Frame#	Time	LFHD			RFHD			LBHD			RBHD			C7			T10			CLAV			STRN			RBAK			LSHO			LUPA			LELB			LFRM			LWRA			LWRB			LFIN			RSHO			RUPA			RELB			RFRM			RWRA			RWRB			RFIN			LASI			RASI			LPSI			RPSI			LTHI			LKNE			LTIB			LANK			LHEE			LTOE			RTHI			RKNE			RTIB			RANK			RHEE			RTOE			*39			*40			*41			*42			*43			*44			*45			*46			*47			*48			*49		
		X1	Y1	Z1	X2	Y2	Z2	X3	Y3	Z3	X4	Y4	Z4	X5	Y5	Z5	X6	Y6	Z6	X7	Y7	Z7	X8	Y8	Z8	X9	Y9	Z9	X10	Y10	Z10	X11	Y11	Z11	X12	Y12	Z12	X13	Y13	Z13	X14	Y14	Z14	X15	Y15	Z15	X16	Y16	Z16	X17	Y17	Z17	X18	Y18	Z18	X19	Y19	Z19	X20	Y20	Z20	X21	Y21	Z21	X22	Y22	Z22	X23	Y23	Z23	X24	Y24	Z24	X25	Y25	Z25	X26	Y26	Z26	X27	Y27	Z27	X28	Y28	Z28	X29	Y29	Z29	X30	Y30	Z30	X31	Y31	Z31	X32	Y32	Z32	X33	Y33	Z33	X34	Y34	Z34	X35	Y35	Z35	X36	Y36	Z36	X37	Y37	Z37	X38	Y38	Z38	X39	Y39	Z39	X40	Y40	Z40	X41	Y41	Z41	X42	Y42	Z42	X43	Y43	Z43	X44	Y44	Z44	X45	Y45	Z45	X46	Y46	Z46	X47	Y47	Z47	X48	Y48	Z48	X49	Y49	Z49	X50	Y50	Z50
																																																																																																																																																							
155	1.54	423.57916	1767.34802	1370.10876	420.15338	1742.92139	1511.94446	325.03329	1654.64124	1349.76782	310.59399	1624.8269	1489.38721	291.36603	1523.7085	1419.93872	246.49284	1250.32532	1437.5155	432.18088	1464.17102	1406.72729	490.58759	1291.26978	1415.05566	241.84163	1352.95532	1490.54224	359.77859	1500.29846	1237.8551	343.11722	1296.70032	1164.00415	338.08829	1155.28052	1162.95715	338.88895	1024.66309	1151.61719	386.32233	893.83362	1184.12329	341.78717	901.32019	1148.80469	350.60522	833.73328	1150.47937	378.56702	1497.05579	1604.58801	355.1301	1308.78467	1695.61829	371.05795	1162.44263	1711.24365	401.0343	1046.36377	1733.58679	448.37817	919.63611	1716.44189	402.82693	916.81097	1750.59021	440.90762	854.98779	1754.24292	465.76297	983.27698	1294.19653	496.64731	985.05334	1550.79297	268.16833	1030.74915	1398.98877	276.38962	1037.97278	1513.71179	430.82159	671.11957	1245.65344	422.84689	486.20715	1267.16248	278.25845	374.52435	1296.82153	154.78938	193.00095	1340.75671	127.22952	185.16701	1403.22388	239.48389	70.21133	1296.17456	447.46103	679.75439	1622.07715	450.81778	469.94141	1576.24548	415.28799	283.71176	1580.12476	400.17719	91.58041	1539.06274	363.55975	38.60927	1484.89722	553.6001	40.58625	1545.94556	300.02756	1790.93311	1453.42603	NaN	NaN	NaN	NaN	NaN	NaN	NaN	NaN	NaN	NaN	NaN	NaN	NaN	NaN	NaN	NaN	NaN	NaN	NaN	NaN	NaN	NaN	NaN	NaN	NaN	NaN	NaN	NaN	NaN	NaN
156	1.55	432.65659	1768.37781	1369.6178	429.66483	1744.02271	1511.59058	334.1575	1655.54224	1349.76306	320.24146	1625.94983	1489.73059	299.93048	1525.01978	1420.50171	255.79422	1251.61719	1438.59766	441.57968	1465.12207	1406.27808	499.73077	1292.13184	1414.63074	251.54626	1354.5686	1491.77527	368.04889	1501.25171	1237.94165	348.59561	1297.76746	1164.30518	341.25266	1156.63074	1163.79321	339.28061	1026.1261	1151.76086	383.00992	893.84137	1185.73718	339.48776	902.62878	1149.44177	345.86047	834.49457	1152.25562	389.0881	1498.59839	1604.44434	368.44012	1310.09387	1695.92981	385.61996	1163.85522	1711.6416	417.49738	1048.45239	1734.1394	465.79404	922.02386	1716.28625	420.8858	918.87109	1751.21582	459.80011	857.51227	1754.53674	474.44031	985.46191	1294.16833	504.88583	985.65857	1550.82227	276.94797	1031.875	1399.20435	285.04456	1039.11682	1513.94507	444.0975	673.32861	1245.099	440.53574	488.16373	1266.97705	298.95383	372.73233	1296.802	180.64159	187.66731	1340.6311	153.1196	178.8205	1402.89966	269.29617	68.50497	1295.06445	451.07822	679.66846	1621.46289	453.17752	469.85983	1575.87598	416.21786	283.98456	1579.98706	400.39383	91.73516	1538.84326	364.24612	38.07896	1484.93127	553.71051	40.32552	1545.94165	309.45383	1792.03638	1453.61292	NaN	NaN	NaN	NaN	NaN	NaN	NaN	NaN	NaN	NaN	NaN	NaN	NaN	NaN	NaN	NaN	NaN	NaN	NaN	NaN	NaN	NaN	NaN	NaN	NaN	NaN	NaN	NaN	NaN	NaN
157	1.56	441.77695	1769.43066	1369.36841	439.21805	1745.00415	1511.13037	343.47006	1656.32751	1349.6875	329.67374	1626.74512	1490.02698	309.31628	1525.98523	1420.83923	264.99646	1252.82837	1439.71497	450.94553	1466.01221	1405.78589	508.79486	1292.88965	1414.20447	261.00354	1356.0376	1492.62207	376.19067	1502.07312	1238.03467	353.99112	1298.86707	1164.40466	344.34311	1158.04688	1164.49023	340.16458	1027.36731	1152.80676	380.09543	894.15942	1187.27112	337.59122	904.05322	1150.06409	341.91043	835.4704	1153.86755	399.25967	1499.84412	1603.73767	381.71497	1311.42236	1696.12842	400.55688	1165.55322	1712.3573	433.94171	1050.43018	1734.17834	483.33276	924.54926	1716.03137	439.05432	920.9975	1751.64917	478.76474	860.15021	1754.66089	483.47653	987.47406	1294.47168	512.94409	986.23987	1550.84058	285.68933	1032.96375	1399.04126	293.6329	1040.01624	1513.80103	457.03552	675.55737	1244.44727	457.86298	490.05429	1266.72351	319.70645	370.39722	1296.40369	207.23712	181.63023	1340.21118	179.98009	171.62413	1402.57434	300.56335	66.46852	1293.83032	454.49023	679.66858	1620.84473	455.83759	469.76563	1575.53198	417.84976	284.09155	1579.66309	400.76913	91.9829	1538.75305	363.97357	38.51888	1485.01843	553.88177	40.17272	1546.052	318.73746	1792.78259	1453.1615	2845.84692	1033.89783	-3357.13135	NaN	NaN	NaN	NaN	NaN	NaN	NaN	NaN	NaN	NaN	NaN	NaN	NaN	NaN	NaN	NaN	NaN	NaN	NaN	NaN	NaN	NaN	NaN	NaN	NaN	NaN	NaN
158	1.57	451.08853	1770.02563	1368.80066	448.82297	1745.86829	1510.62073	352.7229	1657.06824	1349.39612	339.21777	1627.41248	1489.45508	318.91797	1526.8457	1421.12244	274.10483	1253.93848	1440.69324	460.25488	1466.77588	1405.24329	517.79346	1293.54395	1413.78516	270.36487	1357.43359	1493.56348	384.12817	1502.62549	1237.85864	359.24753	1299.99194	1164.54834	347.04346	1159.2926	1164.89685	340.64743	1028.96216	1153.24646	377.57306	894.61194	1188.55127	336.03806	905.31958	1150.64282	338.20261	836.63226	1155.29932	409.67191	1501.151	1603.37769	394.84784	1312.67798	1696.31287	415.22867	1166.93555	1712.54468	450.142	1052.2063	1733.979	501.13556	927.05084	1715.71838	457.22852	923.13428	1751.93713	497.69965	862.80219	1754.5293	492.76559	989.40503	1295.07483	520.8501	986.70569	1550.80615	294.45441	1034.02808	1398.41956	301.34659	1040.91162	1513.40503	469.78235	677.64081	1243.6626	474.86276	491.86237	1266.33203	340.4798	367.47577	1295.57861	234.42622	174.98918	1339.46802	207.39462	163.4711	1401.64624	332.20718	64.0052	1292.35571	458.9043	679.62262	1620.37183	458.61475	469.54889	1575.25562	419.76236	284.09937	1579.39868	401.05069	92.09316	1538.62976	364.12607	38.53378	1484.63391	554.01117	40.06719	1546.16125	328.18661	1793.54993	1452.89954	2845.86548	1033.8783	-3356.82715	NaN	NaN	NaN	NaN	NaN	NaN	NaN	NaN	NaN	NaN	NaN	NaN	NaN	NaN	NaN	NaN	NaN	NaN	NaN	NaN	NaN	NaN	NaN	NaN	NaN	NaN	NaN
